PathFileType	4	(X/Y/Z)	C:/Users/opensim2020/Desktop/walking_exp_matlab/subject02_walking13_straight_03.trc	
DataRate	CameraRate	NumFrames	NumMarkers	Units	OrigDataRate	OrigDataStartFrame	OrigNumFrames	
100.00	100.00	6	41	mm	100.00	1392	129	
Frame#	Time	LFHD			RFHD			LBHD			RBHD			C7			T10			CLAV			STRN			RBAK			LSHO			LUPA			LELB			LFRM			LWRA			LWRB			LFIN			RSHO			RUPA			RELB			RFRM			RWRA			RWRB			RFIN			LASI			RASI			LPSI			RPSI			LTHI			LKNE			LTIB			LANK			LHEE			LTOE			RTHI			RKNE			RTIB			RANK			RHEE			RTOE			*39			*40			
		X1	Y1	Z1	X2	Y2	Z2	X3	Y3	Z3	X4	Y4	Z4	X5	Y5	Z5	X6	Y6	Z6	X7	Y7	Z7	X8	Y8	Z8	X9	Y9	Z9	X10	Y10	Z10	X11	Y11	Z11	X12	Y12	Z12	X13	Y13	Z13	X14	Y14	Z14	X15	Y15	Z15	X16	Y16	Z16	X17	Y17	Z17	X18	Y18	Z18	X19	Y19	Z19	X20	Y20	Z20	X21	Y21	Z21	X22	Y22	Z22	X23	Y23	Z23	X24	Y24	Z24	X25	Y25	Z25	X26	Y26	Z26	X27	Y27	Z27	X28	Y28	Z28	X29	Y29	Z29	X30	Y30	Z30	X31	Y31	Z31	X32	Y32	Z32	X33	Y33	Z33	X34	Y34	Z34	X35	Y35	Z35	X36	Y36	Z36	X37	Y37	Z37	X38	Y38	Z38	X39	Y39	Z39	X40	Y40	Z40	X41	Y41	Z41	

81	0.800	-1051.55994	383.95084	1717.51367	-915.05597	343.76050	1687.32520	-1102.80029	265.61533	1638.26746	-971.63544	214.87463	1605.58289	-1046.26306	196.52592	1488.84253	-1051.38770	158.06694	1213.12109	-1041.15112	342.04971	1430.29919	-1038.16431	401.94266	1261.75684	-1001.15283	141.25444	1307.99878	-1211.80103	289.53189	1482.29321	-1328.60461	340.52078	1314.25330	-1376.48010	401.86615	1193.52734	-1397.75012	509.58969	1114.28320	-1372.98767	640.76819	1081.52197	-1402.14063	609.84656	1044.06665	-1412.52539	672.15570	1024.90540	-853.49536	248.63626	1447.34351	-791.47565	178.93152	1262.60413	-781.96191	162.43842	1118.53650	-760.25610	154.07201	1000.31451	-770.53766	171.08936	864.20953	-751.41028	118.00814	874.95911	-743.52466	132.87022	803.67712	-1192.46582	388.19839	959.54718	-935.15161	401.82700	952.08643	-1094.23950	183.04005	997.75269	-981.59045	181.50327	995.01483	-1248.21326	250.12057	661.56006	-1228.04785	168.38094	477.54971	-1232.86462	29.08301	340.19348	-1212.92188	-74.10804	136.20537	-1162.77820	-114.50210	129.68109	-1216.17700	47.93160	32.17761	-862.12695	415.03946	657.93756	-911.79211	477.99454	461.12534	-919.30273	488.39474	272.98434	-957.89429	527.90839	88.12230	-1020.20331	505.79950	39.15000	-938.46655	684.67108	51.50451	-990.04364	256.82043	1771.20825	-3360.35254	2845.16357	1034.25244 
82	0.810	-1049.67798	397.09457	1718.61853	-912.79694	356.91156	1688.65015	-1099.79163	278.99609	1638.69482	-969.30615	228.20132	1606.53284	-1043.26257	209.55962	1488.92285	-1048.83130	172.82751	1213.18079	-1038.46045	355.42648	1431.19165	-1035.21484	416.17819	1263.01892	-998.52393	155.24147	1308.08862	-1209.56323	302.44577	1482.45776	-1326.01575	353.01117	1313.59888	-1373.94348	414.03082	1192.56262	-1394.59229	522.26123	1113.87708	-1369.72144	653.44342	1082.17212	-1398.58057	622.92120	1044.26135	-1408.80090	685.38623	1025.65283	-850.64551	261.92276	1447.22791	-788.79102	193.23798	1261.91614	-780.29327	176.56119	1117.79907	-758.37860	168.16199	999.86688	-768.85687	184.08162	863.83978	-749.76239	131.17664	874.71167	-741.85553	145.30846	803.65967	-1188.62183	404.91055	958.74426	-932.11707	417.14188	952.39691	-1092.29333	199.21632	997.70685	-978.87854	197.79015	996.37854	-1246.49207	268.22971	661.23785	-1228.71570	187.80612	478.12601	-1231.61157	43.40884	346.27850	-1213.46899	-65.80684	145.36487	-1162.19629	-104.06456	141.08775	-1216.66284	48.00967	32.28377	-857.73163	429.31812	659.68555	-910.62689	496.62048	464.89117	-914.54883	503.28271	277.10684	-958.57300	530.00732	88.37470	-1020.13861	505.88422	39.60781	-941.06879	685.28900	48.06258	-987.79346	269.77313	1772.00293	-3360.47290	2845.32813	1034.13062 
83	0.820	-1047.19824	409.96896	1719.80615	-910.92627	370.01416	1689.80078	-1097.82190	291.84268	1640.06592	-966.57428	241.45322	1607.78625	-1040.49536	223.19951	1490.08618	-1046.75403	187.37816	1213.47107	-1035.79517	368.62686	1432.64148	-1032.30090	430.55554	1264.71216	-995.76007	169.28107	1308.59436	-1207.69788	315.50430	1482.99036	-1323.13098	365.31348	1313.15149	-1371.01050	425.68723	1191.77649	-1391.27490	534.07910	1113.27112	-1366.20618	665.13574	1082.10364	-1394.80835	634.87842	1043.85242	-1404.70728	697.50293	1025.53357	-847.59473	275.36472	1447.53210	-786.03442	207.62888	1261.86096	-777.99066	191.96509	1117.69287	-756.30066	182.63190	999.83630	-766.79840	197.91560	863.84326	-747.89081	145.29088	874.93506	-739.98425	158.91541	803.83112	-1184.11914	421.49124	958.16187	-928.67657	432.45993	953.32428	-1090.78479	215.57001	998.43317	-975.89838	213.59367	998.85522	-1244.73706	286.82059	661.08917	-1229.40869	208.85689	478.64456	-1230.22717	59.97901	352.62817	-1213.64160	-54.91434	154.82381	-1160.95093	-91.00334	152.52397	-1216.81653	48.38552	32.47854	-855.32159	442.86197	660.83826	-910.26483	514.88989	468.93088	-912.51276	516.99194	280.53262	-959.35944	532.25427	90.71359	-1019.80664	507.06836	40.05890	-943.49200	687.77258	46.16848	-985.90356	282.58990	1773.25806	-3357.27466	2846.00244	1034.40466 
84	0.830	-1045.02820	422.94485	1721.01953	-908.54010	383.08035	1691.05139	-1095.37866	304.77808	1641.19897	-963.99536	254.49277	1609.11768	-1037.85876	237.05634	1491.73035	-1044.64087	201.77873	1213.97266	-1033.21912	381.81161	1434.27576	-1029.42224	444.88385	1266.57654	-992.80170	183.38023	1309.19690	-1205.72974	328.60559	1483.98535	-1319.59888	377.16394	1312.69324	-1367.89990	436.78281	1191.23743	-1387.67639	545.02618	1112.43286	-1362.38184	675.91949	1081.31091	-1390.91577	645.71240	1042.75745	-1400.57153	708.54321	1024.68701	-844.86237	288.76706	1448.38550	-783.27264	222.36502	1262.30188	-776.06647	207.02080	1118.14368	-754.25031	197.57594	1000.39746	-764.60736	213.25017	864.27631	-745.95380	160.16032	875.36877	-737.94531	174.00800	804.25977	-1179.22595	437.75781	958.06177	-924.92041	447.72177	954.73096	-1089.46533	231.82515	999.65552	-972.93762	228.84717	1001.42181	-1242.96326	305.77814	660.72339	-1229.69250	231.50555	478.53085	-1229.01672	79.48645	357.84161	-1213.67725	-41.39154	163.97736	-1159.99915	-75.39143	164.00993	-1216.74207	49.48624	32.74536	-853.97369	456.49918	661.40302	-910.45734	530.40131	470.68552	-911.69336	528.72449	282.53201	-959.03998	537.17810	92.50956	-1019.66974	508.03522	41.01804	-943.73743	690.40833	44.56195	-983.49310	295.79218	1774.38159	-3357.37280	2846.06641	1034.39758 
85	0.840	-1042.62866	435.76495	1722.10400	-906.00092	396.16867	1692.63623	-1092.67444	317.77655	1642.13831	-961.68030	267.53094	1610.23596	-1035.47009	250.74525	1493.27075	-1042.32764	215.73653	1214.75452	-1030.73645	395.14365	1435.87524	-1026.66418	459.20285	1268.51208	-989.97449	197.46613	1309.98755	-1203.46558	341.85068	1485.29736	-1316.94458	389.11804	1313.14063	-1364.67737	447.37796	1190.85925	-1383.89941	555.24268	1111.39038	-1358.25269	685.84631	1079.66504	-1386.62732	655.62360	1041.03210	-1396.01880	718.54407	1022.75195	-842.63959	301.97421	1450.05139	-780.53870	237.02458	1263.16467	-773.83160	222.80232	1118.88416	-752.16669	213.33716	1001.36688	-762.23267	229.13536	864.93585	-743.53693	176.17737	876.34039	-735.84039	189.75938	804.91986	-1174.14319	453.63782	958.39252	-921.18445	462.86157	956.32141	-1087.85803	247.41884	1001.01160	-970.14313	243.77234	1003.75964	-1241.22375	325.11975	659.95190	-1229.64807	255.38585	477.69916	-1227.94543	101.41145	361.82242	-1213.76306	-24.67327	172.40131	-1159.26416	-57.75440	175.03011	-1216.53162	52.30525	32.96226	-852.84247	470.56995	661.67755	-910.14374	543.51941	470.57715	-911.34894	537.66968	282.74652	-959.63409	539.29614	91.88198	-1020.06763	508.58362	41.15928	-943.90729	691.39270	43.62875	-981.15479	308.72385	1775.80859	-3357.39160	2845.89917	1034.49683 
86	0.850	-1040.36023	448.60599	1723.74646	-903.83875	408.97726	1694.07446	-1090.39893	330.80026	1643.34094	-959.13574	280.69711	1611.14221	-1033.29565	264.08038	1494.42590	-1040.03381	229.67387	1215.77087	-1028.39307	408.64972	1437.47302	-1024.02112	473.31256	1270.44116	-987.45258	211.47701	1310.95923	-1201.02112	355.23929	1486.55518	-1313.81311	400.75717	1313.45007	-1361.58777	457.44812	1190.67261	-1380.03528	564.81012	1109.98450	-1353.89624	695.06567	1077.25574	-1382.14832	664.73383	1038.69226	-1391.13171	727.52527	1019.86761	-840.54352	314.89966	1451.73157	-777.78552	251.94203	1264.47681	-771.81549	238.45990	1120.03955	-749.88721	229.76163	1002.54407	-759.90320	245.98309	866.38525	-741.01343	193.00604	877.42926	-733.62836	206.62393	805.84650	-1168.14575	468.51425	958.94586	-917.58624	477.64462	958.26166	-1086.02783	262.31158	1002.35040	-967.71631	258.67023	1005.71008	-1239.42871	344.88672	658.69598	-1229.54529	279.93817	476.49442	-1227.11536	125.00128	364.47540	-1214.02893	-5.63657	180.33780	-1158.68652	-38.48633	185.64922	-1216.37378	58.57064	35.05796	-852.19958	485.34586	661.67426	-909.57721	554.34100	469.93228	-912.09186	542.71313	281.46750	-960.42676	539.99255	91.73810	-1020.21082	508.76144	41.19411	-945.06415	692.70746	43.05218	-978.74878	321.35944	1776.99487	-3357.27905	2845.97461	1034.32068 
